<svg width="1440" height="1024" viewBox="0 0 1440 1024" fill="none" xmlns="http://www.w3.org/2000/svg">
<rect width="1440" height="1024" fill="white"/>
<rect x="600" y="729" width="220" height="40" fill="#FFB400"/>
<path d="M644.455 753C647.557 753 649.396 751.081 649.396 747.899C649.396 744.727 647.557 742.818 644.524 742.818H641.004V753H644.455ZM642.849 751.404V744.414H644.42C646.488 744.414 647.567 745.567 647.567 747.899C647.567 750.241 646.488 751.404 644.365 751.404H642.849ZM660.247 747.909C660.247 744.618 658.238 742.679 655.569 742.679C652.894 742.679 650.89 744.618 650.89 747.909C650.89 751.195 652.894 753.139 655.569 753.139C658.238 753.139 660.247 751.2 660.247 747.909ZM658.392 747.909C658.392 750.226 657.229 751.484 655.569 751.484C653.913 751.484 652.745 750.226 652.745 747.909C652.745 745.592 653.913 744.335 655.569 744.335C657.229 744.335 658.392 745.592 658.392 747.909ZM663.874 753H665.693L667.737 745.856H667.816L669.854 753H671.674L674.548 742.818H672.564L670.729 750.305H670.64L668.676 742.818H666.871L664.913 750.3H664.818L662.984 742.818H661L663.874 753ZM684.194 742.818H682.359V749.759H682.27L677.477 742.818H675.827V753H677.671V746.065H677.756L682.553 753H684.194V742.818ZM686.203 753H692.532V751.454H688.048V742.818H686.203V753ZM702.835 747.909C702.835 744.618 700.826 742.679 698.156 742.679C695.482 742.679 693.478 744.618 693.478 747.909C693.478 751.195 695.482 753.139 698.156 753.139C700.826 753.139 702.835 751.2 702.835 747.909ZM700.98 747.909C700.98 750.226 699.817 751.484 698.156 751.484C696.501 751.484 695.333 750.226 695.333 747.909C695.333 745.592 696.501 744.335 698.156 744.335C699.817 744.335 700.98 745.592 700.98 747.909ZM705.339 753L706.179 750.489H710.007L710.853 753H712.821L709.232 742.818H706.955L703.37 753H705.339ZM706.676 749.008L708.054 744.906H708.133L709.51 749.008H706.676ZM717.613 753C720.715 753 722.555 751.081 722.555 747.899C722.555 744.727 720.715 742.818 717.682 742.818H714.162V753H717.613ZM716.007 751.404V744.414H717.578C719.646 744.414 720.725 745.567 720.725 747.899C720.725 750.241 719.646 751.404 717.523 751.404H716.007ZM736.495 746.254C736.182 743.991 734.442 742.679 732.184 742.679C729.525 742.679 727.521 744.618 727.521 747.909C727.521 751.195 729.5 753.139 732.184 753.139C734.606 753.139 736.211 751.573 736.495 749.629L734.635 749.619C734.402 750.812 733.427 751.484 732.209 751.484C730.559 751.484 729.376 750.246 729.376 747.909C729.376 745.612 730.549 744.335 732.214 744.335C733.452 744.335 734.422 745.036 734.635 746.254H736.495ZM739.546 742.818H737.523L741.107 753H743.384L746.974 742.818H744.945L742.3 750.832H742.196L739.546 742.818Z" fill="#2B2B2B"/>
<g clip-path="url(#clip0_3_70)">
<path d="M769.333 753.952H778.667V749.286H779.833V754.619C779.833 754.796 779.772 754.965 779.663 755.09C779.553 755.215 779.405 755.286 779.25 755.286H768.75C768.595 755.286 768.447 755.215 768.338 755.09C768.228 754.965 768.167 754.796 768.167 754.619V749.286H769.333V753.952ZM775.167 747.286H778.083L774 751.952L769.917 747.286H772.833V743.286H775.167V747.286Z" fill="#2B2B2B"/>
</g>
<g filter="url(#filter0_d_3_70)">
<rect x="626" y="589" width="169" height="38" rx="19" fill="white"/>
</g>
<path d="M677.241 608.909C677.241 605.578 675.173 603.679 672.474 603.679C669.759 603.679 667.706 605.578 667.706 608.909C667.706 612.225 669.759 614.139 672.474 614.139C675.173 614.139 677.241 612.24 677.241 608.909ZM675.059 608.909C675.059 611.067 674.035 612.235 672.474 612.235C670.908 612.235 669.888 611.067 669.888 608.909C669.888 606.751 670.908 605.583 672.474 605.583C674.035 605.583 675.059 606.751 675.059 608.909ZM678.836 614H680.989V610.391H682.56L684.489 614H686.865L684.703 610.043C685.861 609.545 686.502 608.536 686.502 607.144C686.502 605.121 685.165 603.818 682.853 603.818H678.836V614ZM680.989 608.661V605.578H682.441C683.683 605.578 684.285 606.13 684.285 607.144C684.285 608.153 683.683 608.661 682.45 608.661H680.989ZM691.633 614C694.735 614 696.615 612.081 696.615 608.899C696.615 605.727 694.735 603.818 691.663 603.818H688.024V614H691.633ZM690.176 612.156V605.663H691.548C693.458 605.663 694.467 606.637 694.467 608.899C694.467 611.171 693.458 612.156 691.544 612.156H690.176ZM698.209 614H705.09V612.225H700.362V609.794H704.717V608.019H700.362V605.593H705.07V603.818H698.209V614ZM706.781 614H708.934V610.391H710.505L712.434 614H714.811L712.648 610.043C713.806 609.545 714.448 608.536 714.448 607.144C714.448 605.121 713.11 603.818 710.798 603.818H706.781V614ZM708.934 608.661V605.578H710.386C711.629 605.578 712.23 606.13 712.23 607.144C712.23 608.153 711.629 608.661 710.396 608.661H708.934ZM727.725 603.818H725.583V610.222H725.493L721.098 603.818H719.209V614H721.362V607.592H721.436L725.866 614H727.725V603.818ZM738.861 608.909C738.861 605.578 736.792 603.679 734.093 603.679C731.378 603.679 729.325 605.578 729.325 608.909C729.325 612.225 731.378 614.139 734.093 614.139C736.792 614.139 738.861 612.24 738.861 608.909ZM736.678 608.909C736.678 611.067 735.654 612.235 734.093 612.235C732.527 612.235 731.508 611.067 731.508 608.909C731.508 606.751 732.527 605.583 734.093 605.583C735.654 605.583 736.678 606.751 736.678 608.909ZM742.364 614H744.462L746.396 607.343H746.476L748.415 614H750.513L753.426 603.818H751.075L749.389 610.908H749.3L747.445 603.818H745.432L743.572 610.893H743.488L741.803 603.818H739.451L742.364 614Z" fill="#2B2B2B"/>
<rect x="331.75" y="724.75" width="159.5" height="4.5" rx="2.25" stroke="#FFB400" stroke-width="0.5"/>
<rect x="332.723" y="726" width="157.555" height="2" rx="1" fill="#FFB400"/>
<g clip-path="url(#clip1_3_70)">
<path d="M717.167 200.875H718.625L719.208 198.542H717.167V197.375C717.167 196.774 717.167 196.208 718.333 196.208H719.208V194.248C719.018 194.223 718.3 194.167 717.542 194.167C715.958 194.167 714.833 195.133 714.833 196.908V198.542H713.083V200.875H714.833V205.833H717.167V200.875Z" fill="#1B1B1B"/>
</g>
<g clip-path="url(#clip2_3_70)">
<path d="M716 221.167C717.585 221.167 717.783 221.172 718.405 221.202C719.026 221.231 719.449 221.328 719.821 221.473C720.206 221.621 720.53 221.822 720.855 222.145C721.151 222.437 721.381 222.79 721.527 223.179C721.671 223.551 721.769 223.974 721.798 224.595C721.826 225.217 721.833 225.415 721.833 227C721.833 228.585 721.828 228.783 721.798 229.404C721.769 230.026 721.671 230.449 721.527 230.821C721.381 231.21 721.152 231.563 720.855 231.854C720.563 232.151 720.21 232.38 719.821 232.527C719.449 232.671 719.026 232.769 718.405 232.798C717.783 232.826 717.585 232.833 716 232.833C714.415 232.833 714.217 232.827 713.596 232.798C712.974 232.769 712.551 232.671 712.179 232.527C711.79 232.381 711.437 232.151 711.146 231.854C710.849 231.563 710.619 231.21 710.473 230.821C710.328 230.449 710.231 230.026 710.202 229.404C710.174 228.783 710.167 228.585 710.167 227C710.167 225.415 710.173 225.217 710.202 224.595C710.231 223.974 710.328 223.551 710.473 223.179C710.619 222.789 710.849 222.437 711.146 222.145C711.437 221.849 711.79 221.619 712.179 221.473C712.551 221.328 712.974 221.231 713.596 221.202C714.217 221.174 714.415 221.167 716 221.167ZM716 224.083C715.227 224.083 714.485 224.39 713.938 224.937C713.391 225.484 713.083 226.226 713.083 227C713.083 227.773 713.391 228.515 713.938 229.062C714.485 229.609 715.227 229.917 716 229.917C716.774 229.917 717.515 229.609 718.062 229.062C718.609 228.515 718.917 227.773 718.917 227C718.917 226.226 718.609 225.484 718.062 224.937C717.515 224.39 716.774 224.083 716 224.083ZM719.792 223.937C719.792 223.744 719.715 223.558 719.578 223.422C719.441 223.285 719.256 223.208 719.063 223.208C718.869 223.208 718.684 223.285 718.547 223.422C718.41 223.558 718.333 223.744 718.333 223.937C718.333 224.131 718.41 224.316 718.547 224.453C718.684 224.59 718.869 224.667 719.063 224.667C719.256 224.667 719.441 224.59 719.578 224.453C719.715 224.316 719.792 224.131 719.792 223.937ZM716 225.25C716.464 225.25 716.909 225.434 717.238 225.762C717.566 226.091 717.75 226.536 717.75 227C717.75 227.464 717.566 227.909 717.238 228.237C716.909 228.565 716.464 228.75 716 228.75C715.536 228.75 715.091 228.565 714.763 228.237C714.434 227.909 714.25 227.464 714.25 227C714.25 226.536 714.434 226.091 714.763 225.762C715.091 225.434 715.536 225.25 716 225.25Z" fill="#1B1B1B"/>
</g>
<g clip-path="url(#clip3_3_70)">
<path d="M721.928 250.3C721.483 250.497 721.01 250.626 720.527 250.683C721.036 250.379 721.418 249.899 721.6 249.334C721.122 249.618 720.597 249.818 720.051 249.926C719.684 249.533 719.197 249.272 718.666 249.185C718.136 249.097 717.591 249.187 717.117 249.441C716.643 249.694 716.266 250.098 716.045 250.588C715.824 251.078 715.771 251.627 715.894 252.15C714.924 252.102 713.975 251.85 713.109 251.411C712.242 250.971 711.478 250.355 710.866 249.601C710.649 249.974 710.535 250.397 710.535 250.828C710.535 251.674 710.966 252.421 711.62 252.859C711.233 252.846 710.854 252.742 710.516 252.554V252.584C710.516 253.147 710.711 253.693 711.067 254.129C711.424 254.565 711.921 254.864 712.473 254.976C712.113 255.074 711.736 255.088 711.37 255.018C711.526 255.503 711.829 255.927 712.238 256.231C712.647 256.535 713.14 256.703 713.649 256.713C713.143 257.11 712.564 257.404 711.944 257.577C711.324 257.751 710.677 257.8 710.038 257.723C711.153 258.44 712.451 258.821 713.777 258.82C718.265 258.82 720.719 255.102 720.719 251.878C720.719 251.773 720.716 251.667 720.711 251.563C721.189 251.218 721.601 250.79 721.929 250.3L721.928 250.3Z" fill="#1B1B1B"/>
</g>
<g clip-path="url(#clip4_3_70)">
<path d="M720.66 307.75C720.613 306.832 720.293 305.949 719.743 305.212C719.575 305.393 719.396 305.562 719.206 305.72C718.623 306.204 717.972 306.599 717.273 306.892C717.371 307.096 717.46 307.294 717.539 307.481V307.482C717.561 307.535 717.583 307.587 717.603 307.64C718.486 307.541 719.417 307.577 720.32 307.699C720.44 307.715 720.553 307.733 720.66 307.75ZM715.186 303.404C715.754 304.205 716.278 305.037 716.756 305.895C717.469 305.614 718.059 305.259 718.534 304.864C718.699 304.729 718.854 304.581 718.998 304.424C718.159 303.718 717.097 303.332 716 303.333C715.727 303.333 715.455 303.357 715.186 303.404V303.404ZM711.481 306.831C711.878 306.821 712.275 306.797 712.671 306.76C713.627 306.674 714.576 306.514 715.507 306.28C715.02 305.434 714.495 304.612 713.932 303.814C713.331 304.112 712.801 304.536 712.378 305.056C711.955 305.577 711.649 306.182 711.481 306.831ZM712.373 310.937C712.6 310.606 712.897 310.234 713.292 309.829C714.14 308.96 715.141 308.283 716.3 307.91L716.336 307.9C716.24 307.687 716.149 307.498 716.058 307.319C714.987 307.631 713.859 307.826 712.735 307.927C712.187 307.977 711.695 307.998 711.333 308.002C711.332 309.071 711.7 310.107 712.374 310.937H712.373ZM717.753 312.325C717.528 311.191 717.21 310.077 716.801 308.995C715.633 309.419 714.703 310.039 713.983 310.779C713.693 311.072 713.436 311.396 713.215 311.744C714.02 312.344 714.997 312.668 716 312.667C716.601 312.667 717.196 312.552 717.753 312.326V312.325ZM718.846 311.698C719.756 310.998 720.377 309.987 720.588 308.857C720.39 308.808 720.138 308.758 719.862 308.72C719.247 308.631 718.623 308.625 718.007 308.7C718.354 309.68 718.634 310.681 718.846 311.699V311.698ZM716 313.833C712.778 313.833 710.167 311.222 710.167 308C710.167 304.778 712.778 302.167 716 302.167C719.222 302.167 721.833 304.778 721.833 308C721.833 311.222 719.222 313.833 716 313.833Z" fill="#2B2B2B"/>
</g>
<g clip-path="url(#clip5_3_70)">
<path d="M721.567 331.791C721.833 332.83 721.833 335 721.833 335C721.833 335 721.833 337.17 721.567 338.21C721.419 338.784 720.985 339.236 720.436 339.389C719.439 339.667 716 339.667 716 339.667C716 339.667 712.562 339.667 711.564 339.389C711.013 339.234 710.58 338.782 710.433 338.21C710.167 337.17 710.167 335 710.167 335C710.167 335 710.167 332.83 710.433 331.791C710.581 331.216 711.015 330.764 711.564 330.611C712.562 330.333 716 330.333 716 330.333C716 330.333 719.439 330.333 720.436 330.611C720.988 330.766 721.42 331.218 721.567 331.791ZM714.833 337.042L718.333 335L714.833 332.958V337.042Z" fill="#1B1B1B"/>
</g>
<rect x="825.5" y="313.5" width="9" height="9" stroke="#2B2B2B"/>
<rect x="830.5" y="318.5" width="9" height="9" stroke="#2B2B2B"/>
<g clip-path="url(#clip6_3_70)">
<path d="M833.5 380C826.596 380 821 374.404 821 367.5C821 360.596 826.596 355 833.5 355C840.404 355 846 360.596 846 367.5C846 374.404 840.404 380 833.5 380ZM825.161 373.031C825.983 374.261 827.067 375.292 828.335 376.052C829.603 376.812 831.024 377.282 832.496 377.426C833.967 377.571 835.453 377.388 836.845 376.89C838.237 376.392 839.501 375.591 840.547 374.545C841.592 373.5 842.393 372.235 842.891 370.843C843.389 369.451 843.572 367.966 843.427 366.494C843.282 365.023 842.813 363.602 842.053 362.334C841.292 361.065 840.261 359.981 839.031 359.16C839.57 361.083 839.588 363.114 839.081 365.046C838.575 366.978 837.564 368.74 836.151 370.151C834.74 371.564 832.978 372.575 831.047 373.081C829.115 373.587 827.084 373.57 825.161 373.031Z" fill="#1B1B1B"/>
</g>
<g clip-path="url(#clip7_3_70)">
<path d="M831 202.172L840.192 192.979L841.607 194.393L831 205L824.636 198.636L826.05 197.222L831 202.172Z" fill="#1B1B1B"/>
</g>
<g clip-path="url(#clip8_3_70)">
<path d="M833 246.586L837.95 241.636L839.364 243.05L834.414 248L839.364 252.95L837.95 254.364L833 249.414L828.05 254.364L826.636 252.95L831.586 248L826.636 243.05L828.05 241.636L833 246.586Z" fill="#1B1B1B"/>
</g>
<path d="M833 291.245L836.911 290.234L838.545 295.368L833 291.245ZM842 284.609H835.116L833 278L830.884 284.609H824L829.571 288.705L827.455 295.314L833.027 291.217L836.455 288.705L842 284.609Z" fill="#1B1B1B"/>
<path d="M176.219 394.438H117.781C116.795 394.439 115.85 394.831 115.153 395.528C114.456 396.225 114.064 397.17 114.062 398.156V435.344C114.064 436.33 114.456 437.275 115.153 437.972C115.85 438.669 116.795 439.061 117.781 439.062H139.055L137.78 442.25H132.125C131.843 442.25 131.573 442.362 131.374 442.561C131.174 442.76 131.062 443.031 131.062 443.312V445.438H124.688C124.406 445.438 124.135 445.549 123.936 445.749C123.737 445.948 123.625 446.218 123.625 446.5C123.625 446.782 123.737 447.052 123.936 447.251C124.135 447.451 124.406 447.562 124.688 447.562H169.312C169.594 447.562 169.865 447.451 170.064 447.251C170.263 447.052 170.375 446.782 170.375 446.5C170.375 446.218 170.263 445.948 170.064 445.749C169.865 445.549 169.594 445.438 169.312 445.438H162.938V443.312C162.938 443.031 162.826 442.76 162.626 442.561C162.427 442.362 162.157 442.25 161.875 442.25H156.22L154.945 439.062H176.219C177.205 439.061 178.15 438.669 178.847 437.972C179.544 437.275 179.936 436.33 179.938 435.344V398.156C179.936 397.17 179.544 396.225 178.847 395.528C178.15 394.831 177.205 394.439 176.219 394.438ZM160.812 444.375V445.438H133.188V444.375H160.812ZM140.07 442.25L141.345 439.062H152.655L153.93 442.25H140.07ZM177.812 435.344C177.812 435.766 177.644 436.172 177.345 436.47C177.047 436.769 176.641 436.937 176.219 436.938H117.781C117.359 436.937 116.953 436.769 116.655 436.47C116.356 436.172 116.188 435.766 116.188 435.344V432.688H177.812V435.344ZM177.812 430.562H116.188V398.156C116.188 397.734 116.356 397.328 116.655 397.03C116.953 396.731 117.359 396.563 117.781 396.562H176.219C176.641 396.563 177.047 396.731 177.345 397.03C177.644 397.328 177.812 397.734 177.812 398.156V430.562Z" fill="#2B2B2B"/>
<path d="M142.167 421.888C142.284 421.965 142.414 422.017 142.551 422.044C142.688 422.07 142.829 422.068 142.966 422.04C143.102 422.012 143.232 421.957 143.347 421.878C143.463 421.8 143.562 421.699 143.638 421.583L152.005 408.833C152.16 408.597 152.215 408.31 152.157 408.034C152.1 407.758 151.936 407.516 151.7 407.361C151.465 407.207 151.177 407.152 150.901 407.209C150.625 407.266 150.383 407.431 150.229 407.666L141.862 420.416C141.785 420.533 141.732 420.664 141.706 420.801C141.68 420.938 141.681 421.079 141.709 421.215C141.738 421.352 141.793 421.482 141.871 421.597C141.95 421.713 142.05 421.811 142.167 421.888Z" fill="#2B2B2B"/>
<path d="M153.757 421.816C153.974 421.997 154.253 422.084 154.534 422.058C154.814 422.033 155.073 421.897 155.254 421.68L160.566 415.305C160.725 415.114 160.812 414.874 160.812 414.625C160.812 414.377 160.725 414.136 160.566 413.945L155.254 407.57C155.165 407.462 155.055 407.373 154.931 407.307C154.808 407.241 154.672 407.201 154.533 407.188C154.393 407.175 154.253 407.189 154.119 407.231C153.985 407.272 153.861 407.34 153.753 407.429C153.646 407.519 153.557 407.629 153.492 407.753C153.427 407.877 153.387 408.013 153.375 408.152C153.363 408.292 153.378 408.432 153.421 408.566C153.463 408.699 153.531 408.823 153.621 408.93L158.367 414.625L153.621 420.32C153.441 420.537 153.354 420.816 153.379 421.096C153.405 421.377 153.541 421.636 153.757 421.816Z" fill="#2B2B2B"/>
<path d="M138.746 421.68C138.835 421.788 138.945 421.878 139.068 421.943C139.192 422.009 139.328 422.05 139.467 422.063C139.606 422.076 139.747 422.061 139.881 422.02C140.015 421.978 140.139 421.911 140.246 421.821C140.354 421.731 140.443 421.621 140.508 421.497C140.573 421.373 140.612 421.238 140.625 421.098C140.637 420.959 140.622 420.818 140.579 420.685C140.537 420.551 140.469 420.427 140.379 420.32L135.633 414.625L140.379 408.93C140.469 408.823 140.537 408.699 140.579 408.566C140.622 408.432 140.637 408.292 140.625 408.152C140.612 408.013 140.573 407.877 140.508 407.753C140.443 407.629 140.354 407.519 140.246 407.429C140.139 407.34 140.015 407.272 139.881 407.231C139.747 407.189 139.606 407.175 139.467 407.188C139.328 407.201 139.192 407.241 139.068 407.307C138.945 407.373 138.835 407.462 138.746 407.57L133.434 413.945C133.275 414.136 133.188 414.377 133.188 414.625C133.188 414.874 133.275 415.114 133.434 415.305L138.746 421.68Z" fill="#2B2B2B"/>
<g clip-path="url(#clip9_3_70)">
<path d="M265.609 436.338C265.059 436.338 264.613 436.784 264.613 437.334C264.613 437.885 265.059 438.331 265.609 438.331H270.391C270.941 438.331 271.387 437.885 271.387 437.334C271.387 436.784 270.941 436.338 270.391 436.338H265.609Z" fill="#2B2B2B"/>
<path d="M245.953 420.872H252.537C252.94 421.918 253.953 422.665 255.139 422.665C256.326 422.665 257.339 421.918 257.741 420.872H259.057C259.608 420.872 260.053 420.426 260.053 419.875C260.053 419.325 259.608 418.879 259.057 418.879H257.741C257.339 417.833 256.326 417.086 255.139 417.086C253.953 417.086 252.94 417.833 252.537 418.879H245.953C245.403 418.879 244.957 419.325 244.957 419.875C244.957 420.426 245.403 420.872 245.953 420.872ZM255.139 419.079C255.579 419.079 255.936 419.436 255.936 419.875C255.936 420.315 255.579 420.672 255.139 420.672C254.7 420.672 254.342 420.315 254.342 419.875C254.342 419.436 254.7 419.079 255.139 419.079Z" fill="#2B2B2B"/>
<path d="M245.953 415.161H247.225C247.627 416.207 248.64 416.954 249.827 416.954C251.013 416.954 252.027 416.207 252.429 415.161H259.057C259.608 415.161 260.053 414.715 260.053 414.165C260.053 413.614 259.608 413.168 259.057 413.168H252.429C252.027 412.122 251.013 411.375 249.827 411.375C248.64 411.375 247.627 412.122 247.225 413.168H245.953C245.403 413.168 244.957 413.614 244.957 414.165C244.957 414.715 245.403 415.161 245.953 415.161ZM249.827 413.368C250.266 413.368 250.624 413.725 250.624 414.165C250.624 414.604 250.266 414.961 249.827 414.961C249.387 414.961 249.03 414.604 249.03 414.165C249.03 413.725 249.387 413.368 249.827 413.368Z" fill="#2B2B2B"/>
<path d="M259.257 405.997C259.807 405.997 260.253 405.551 260.253 405C260.253 404.45 259.807 404.004 259.257 404.004C258.706 404.004 258.26 404.45 258.26 405C258.26 405.551 258.706 405.997 259.257 405.997Z" fill="#2B2B2B"/>
<path d="M256.512 405.997C257.062 405.997 257.508 405.551 257.508 405C257.508 404.45 257.062 404.004 256.512 404.004C255.962 404.004 255.516 404.45 255.516 405C255.516 405.551 255.962 405.997 256.512 405.997Z" fill="#2B2B2B"/>
<path d="M253.767 405.997C254.317 405.997 254.763 405.551 254.763 405C254.763 404.45 254.317 404.004 253.767 404.004C253.217 404.004 252.771 404.45 252.771 405C252.771 405.551 253.217 405.997 253.767 405.997Z" fill="#2B2B2B"/>
<path d="M299.012 393.705H298.639L298.917 393.427C299.75 392.593 299.75 391.237 298.917 390.404L296.736 388.223C295.903 387.39 294.547 387.39 293.713 388.223L288.232 393.705H236.988C235.341 393.705 234 395.045 234 396.693V438.059C234 440.073 235.638 441.712 237.652 441.712H261.246V448.758H256.445C255.164 448.758 254.121 449.801 254.121 451.082V452.077C254.121 453.359 255.164 454.402 256.445 454.402H279.555C280.836 454.402 281.879 453.359 281.879 452.077V451.082C281.879 449.801 280.836 448.758 279.555 448.758H274.754V441.712H285.398C285.949 441.712 286.395 441.266 286.395 440.716C286.395 440.165 285.949 439.719 285.398 439.719H237.652C236.737 439.719 235.992 438.975 235.992 438.059V435.111H300.008V438.059C300.008 438.975 299.263 439.719 298.348 439.719H290.047C289.497 439.719 289.051 440.165 289.051 440.716C289.051 441.266 289.497 441.712 290.047 441.712H298.348C300.362 441.712 302 440.073 302 438.059V396.693C302 395.045 300.659 393.705 299.012 393.705ZM279.555 450.75C279.738 450.75 279.887 450.899 279.887 451.082V452.078C279.887 452.261 279.738 452.41 279.555 452.41H256.445C256.262 452.41 256.113 452.261 256.113 452.078V451.082C256.113 450.899 256.262 450.75 256.445 450.75H279.555ZM263.238 441.712H272.762V448.758H263.238V441.712ZM295.122 389.632C295.179 389.575 295.271 389.575 295.328 389.632L297.508 391.812C297.565 391.869 297.565 391.961 297.508 392.018L295.428 394.098L293.042 391.712L295.122 389.632ZM291.633 393.121L294.019 395.507L293.324 396.202L290.938 393.816L291.633 393.121ZM289.529 395.225L291.915 397.611L280.128 409.398L277.742 407.012L289.529 395.225ZM288.055 404.332C289.41 404.332 290.512 405.434 290.512 406.789C290.512 408.143 289.41 409.246 288.055 409.246C286.7 409.246 285.598 408.143 285.598 406.789C285.598 406.773 285.6 406.757 285.6 406.742L288.008 404.334C288.024 404.334 288.039 404.332 288.055 404.332ZM278.398 410.486L275.45 411.69L276.654 408.742L278.398 410.486ZM300.008 433.119H235.992V396.693C235.992 396.144 236.439 395.697 236.988 395.697H286.24L284.721 397.216H250.867C250.317 397.216 249.871 397.662 249.871 398.212C249.871 398.762 250.317 399.208 250.867 399.208H282.729L275.703 406.234C275.505 406.435 275.349 406.668 275.243 406.93L273.018 412.377C272.813 412.878 272.928 413.448 273.311 413.83C273.567 414.086 273.908 414.222 274.256 414.222C274.426 414.222 274.598 414.19 274.763 414.123L280.21 411.898C280.464 411.794 280.692 411.644 280.888 411.453L283.919 408.423C284.571 410.07 286.178 411.238 288.055 411.238C290.508 411.238 292.504 409.242 292.504 406.789C292.504 404.913 291.336 403.306 289.69 402.653L293.135 399.208H296.497V429.608H295.969L292.359 423.356C292.084 422.879 291.474 422.716 290.998 422.991C290.522 423.266 290.359 423.875 290.634 424.352L293.669 429.608H279.754L278.261 427.023L285.219 414.973L288.309 420.326C288.585 420.802 289.194 420.966 289.67 420.691C290.146 420.416 290.31 419.806 290.035 419.33L286.737 413.619C286.42 413.07 285.853 412.742 285.219 412.742C284.585 412.742 284.017 413.07 283.7 413.619L277.111 425.031L268.657 410.388C268.34 409.839 267.772 409.511 267.138 409.511C266.504 409.511 265.936 409.839 265.619 410.388L263.373 414.279V403.601C263.373 402.32 262.331 401.277 261.049 401.277H243.961C242.679 401.277 241.637 402.32 241.637 403.601V425.383C241.637 426.298 242.381 427.043 243.297 427.043H256.004L254.523 429.608H239.503V399.208H246.219C246.769 399.208 247.215 398.762 247.215 398.212C247.215 397.662 246.769 397.216 246.219 397.216H239.171C238.256 397.216 237.511 397.961 237.511 398.876V429.94C237.511 430.855 238.256 431.6 239.171 431.6H296.829C297.744 431.6 298.489 430.855 298.489 429.94V398.876C298.489 397.961 297.744 397.216 296.829 397.216H295.127L296.646 395.697H299.012C299.561 395.697 300.008 396.144 300.008 396.693V433.119ZM261.382 409.118V425.05H243.629V409.118H261.382ZM243.629 407.126V403.601C243.629 403.418 243.778 403.269 243.961 403.269H261.05C261.233 403.269 261.382 403.418 261.382 403.601V407.126H243.629ZM258.305 427.042H261.714C262.629 427.042 263.374 426.298 263.374 425.382V423.272C263.623 423.392 263.9 423.457 264.191 423.457C264.871 423.457 265.48 423.105 265.82 422.516L267.515 419.58C267.566 419.491 267.644 419.473 267.701 419.473C267.758 419.473 267.836 419.491 267.887 419.58L268.932 421.39C269.272 421.979 269.881 422.331 270.561 422.331C271.241 422.331 271.85 421.979 272.19 421.39L272.45 420.941L277.453 429.608H256.824L258.305 427.042ZM263.374 419.938V418.263L267.139 411.742L271.299 418.949L270.561 420.227L269.612 418.584C269.213 417.893 268.499 417.48 267.701 417.48C266.903 417.48 266.188 417.893 265.789 418.584L264.191 421.353L263.374 419.938Z" fill="#2B2B2B"/>
</g>
<path d="M142.375 518.156H151.625V520.469H142.375V518.156Z" fill="#2B2B2B"/>
<path d="M145.844 514.688H148.156V523.938H145.844V514.688Z" fill="#2B2B2B"/>
<path d="M175.906 518.156H178.219V520.469H175.906V518.156Z" fill="#2B2B2B"/>
<path d="M166.656 518.156H168.969V520.469H166.656V518.156Z" fill="#2B2B2B"/>
<path d="M171.281 513.531H173.594V515.844H171.281V513.531Z" fill="#2B2B2B"/>
<path d="M171.281 522.781H173.594V525.094H171.281V522.781Z" fill="#2B2B2B"/>
<path d="M120.66 500.379L115.457 493.875L120.66 487.371L122.465 488.816L118.418 493.875L122.465 498.934L120.66 500.379Z" fill="#2B2B2B"/>
<path d="M138.653 500.379L136.847 498.934L140.895 493.875L136.847 488.816L138.653 487.371L143.855 493.875L138.653 500.379Z" fill="#2B2B2B"/>
<path d="M124.738 497.737L132.834 488.49L134.574 490.012L126.478 499.261L124.738 497.737Z" fill="#2B2B2B"/>
<path d="M119.25 530.875H114.625V526.25H116.938V528.562H119.25V530.875Z" fill="#2B2B2B"/>
<path d="M180.531 482.312H113.469C111.553 482.312 110 483.866 110 485.781V532.031C110 533.947 111.553 535.5 113.469 535.5H137.75V541.281C137.75 543.197 136.197 544.75 134.281 544.75H128.5V551.688H165.5V544.75H159.719C157.803 544.75 156.25 543.197 156.25 541.281V535.5H180.531C182.447 535.5 184 533.947 184 532.031V485.781C184 483.866 182.447 482.312 180.531 482.312ZM163.188 547.062V549.375H130.812V547.062H163.188ZM147 542.486C148.916 542.486 150.469 540.933 150.469 539.017V535.5H153.938V541.281C153.942 542.536 154.359 543.755 155.124 544.75H138.876C139.641 543.755 140.058 542.536 140.062 541.281V535.5H143.531V539.017C143.531 540.933 145.084 542.486 147 542.486ZM145.844 539.017V535.5H148.156V539.017C148.156 539.656 147.639 540.174 147 540.174C146.361 540.174 145.844 539.656 145.844 539.017ZM181.688 532.031C181.688 532.67 181.17 533.188 180.531 533.188H113.469C112.83 533.188 112.312 532.67 112.312 532.031V521.625H135.669C136.626 526.332 140.396 529.955 145.137 530.726C149.878 531.497 154.601 529.255 157 525.094H162.435C164.373 528.463 167.877 530.629 171.757 530.856C175.637 531.083 179.37 529.34 181.688 526.22V532.031ZM172.438 528.562C168.923 528.571 165.711 526.576 164.161 523.422L163.841 522.781H155.597L155.277 523.422C153.249 527.511 148.542 529.51 144.192 528.129C139.841 526.749 137.148 522.402 137.849 517.891C138.55 513.382 142.436 510.057 147 510.062H172.438C177.546 510.062 181.688 514.204 181.688 519.312C181.688 524.421 177.546 528.562 172.438 528.562ZM181.688 512.405C179.513 509.479 176.083 507.753 172.438 507.75H147C140.617 507.757 135.444 512.929 135.438 519.312H112.312V485.781C112.312 485.143 112.83 484.625 113.469 484.625H180.531C181.17 484.625 181.688 485.143 181.688 485.781V512.405Z" fill="#2B2B2B"/>
<path d="M157.406 518.156H162.031V520.469H157.406V518.156Z" fill="#2B2B2B"/>
<path d="M144.688 489.25H153.938V491.562H144.688V489.25Z" fill="#2B2B2B"/>
<path d="M158.562 489.25H177.062V491.562H158.562V489.25Z" fill="#2B2B2B"/>
<path d="M160.875 493.875H177.062V496.188H160.875V493.875Z" fill="#2B2B2B"/>
<path d="M147 493.875H156.25V496.188H147V493.875Z" fill="#2B2B2B"/>
<path d="M144.688 498.5H167.812V500.812H144.688V498.5Z" fill="#2B2B2B"/>
<path d="M172.438 498.5H177.062V500.812H172.438V498.5Z" fill="#2B2B2B"/>
<path d="M116.938 503.125H128.5V505.438H116.938V503.125Z" fill="#2B2B2B"/>
<path d="M133.125 503.125H155.094V505.438H133.125V503.125Z" fill="#2B2B2B"/>
<path d="M158.562 503.125H177.062V505.438H158.562V503.125Z" fill="#2B2B2B"/>
<path d="M116.938 507.75H135.438V510.062H116.938V507.75Z" fill="#2B2B2B"/>
<path d="M116.938 512.375H126.188V514.688H116.938V512.375Z" fill="#2B2B2B"/>
<path d="M128.5 512.375H133.125V514.688H128.5V512.375Z" fill="#2B2B2B"/>
<path d="M284.355 550.968H303.713L298.743 536.058C297.444 532.16 294.128 529.269 290.088 528.511L276.806 526.02V522.947C279.988 520.651 282.234 517.153 282.885 513.12C285.854 512.618 288.129 510.045 288.129 506.935V498.129C288.129 487.03 279.099 478 268 478C256.901 478 247.871 487.03 247.871 498.129V506.935C247.871 510.042 250.134 512.629 253.098 513.136C253.752 517.17 256.011 520.671 259.194 522.966V526.022L245.911 528.513C241.873 529.27 238.555 532.161 237.255 536.06L232.287 550.968H251.645V548.452H248.225L250.349 539.95L247.909 539.341L245.63 548.452H235.777L239.643 536.855C240.653 533.823 243.234 531.573 246.375 530.983L254.389 529.481L256.438 538.7C255.1 539.282 254.161 540.613 254.161 542.161V552.226C254.161 554.307 255.855 556 257.936 556H278.065C280.145 556 281.839 554.307 281.839 552.226V542.161C281.839 540.613 280.9 539.282 279.563 538.7L281.612 529.481L289.626 530.983C292.768 531.573 295.347 533.823 296.358 536.855L300.223 548.452H290.37L288.091 539.341L285.651 539.95L287.776 548.452H284.355V550.968ZM279.138 529.017L277.4 536.835L276.531 533.355H271.037L275.969 528.423L279.138 529.017ZM275.195 538.387H260.805L261.434 535.871H274.566L275.195 538.387ZM268 532.834L261.71 526.544V524.423C263.627 525.306 265.754 525.806 268 525.806C270.247 525.806 272.373 525.299 274.29 524.416V526.544L268 532.834ZM283.097 510.478V503.394C284.557 503.915 285.613 505.299 285.613 506.937C285.613 508.575 284.557 509.957 283.097 510.478ZM252.903 510.495C251.439 509.975 250.387 508.576 250.387 506.935C250.387 505.295 251.439 503.896 252.903 503.376V510.495ZM250.387 501.936V498.129C250.387 488.417 258.288 480.516 268 480.516C277.712 480.516 285.613 488.417 285.613 498.129V501.936C284.868 501.372 284.008 500.956 283.057 500.768C282.859 499.283 281.598 498.129 280.06 498.129C279.261 498.129 278.478 498.454 277.849 499.083C275.725 501.208 273.032 502.562 270.116 503.003L270.197 502.842C270.405 502.422 270.516 501.952 270.516 501.483V501.166C270.516 499.492 269.154 498.129 267.479 498.129C266.68 498.129 265.898 498.454 265.332 499.018C262.681 501.668 259.165 503.137 255.419 503.161V500.645H254.161C252.74 500.645 251.441 501.137 250.387 501.936ZM255.419 510.71V505.677C259.836 505.654 263.986 503.922 267.109 500.799C267.413 500.494 268 500.742 268 501.166V501.483C268 501.564 267.981 501.644 267.945 501.717L265.964 505.677H268C272.393 505.677 276.522 503.968 279.69 500.799C279.994 500.494 280.581 500.742 280.581 501.166V510.71C280.581 517.647 274.937 523.29 268 523.29C261.063 523.29 255.419 517.647 255.419 510.71ZM260.031 528.423L264.963 533.355H259.469L258.6 536.835L256.862 529.017L260.031 528.423ZM257.936 553.484C257.242 553.484 256.677 552.92 256.677 552.226V542.161C256.677 541.467 257.242 540.903 257.936 540.903H261.849C260.213 542.503 259.194 544.73 259.194 547.194C259.194 549.657 260.213 551.884 261.849 553.484H257.936ZM268 553.484C264.532 553.484 261.71 550.662 261.71 547.194C261.71 543.725 264.532 540.903 268 540.903C271.469 540.903 274.29 543.725 274.29 547.194C274.29 550.662 271.469 553.484 268 553.484ZM279.323 552.226C279.323 552.92 278.758 553.484 278.065 553.484H274.151C275.787 551.884 276.806 549.657 276.806 547.194C276.806 544.73 275.787 542.503 274.151 540.903H278.065C278.758 540.903 279.323 541.467 279.323 542.161V552.226Z" fill="#2B2B2B"/>
<path d="M268 543.419C265.919 543.419 264.226 545.113 264.226 547.194C264.226 549.274 265.919 550.968 268 550.968C270.081 550.968 271.774 549.274 271.774 547.194C271.774 545.113 270.081 543.419 268 543.419ZM268 548.452C267.307 548.452 266.742 547.888 266.742 547.194C266.742 546.499 267.307 545.936 268 545.936C268.693 545.936 269.258 546.499 269.258 547.194C269.258 547.888 268.693 548.452 268 548.452Z" fill="#2B2B2B"/>
<g clip-path="url(#clip10_3_70)">
<path d="M157.789 595.313C158.387 595.313 158.872 594.828 158.872 594.23C158.872 593.633 158.387 593.148 157.789 593.148C157.191 593.148 156.707 593.633 156.707 594.23C156.707 594.828 157.191 595.313 157.789 595.313Z" fill="#2B2B2B"/>
<path d="M162.441 595.313C163.039 595.313 163.524 594.828 163.524 594.23C163.524 593.633 163.039 593.148 162.441 593.148C161.844 593.148 161.359 593.633 161.359 594.23C161.359 594.828 161.844 595.313 162.441 595.313Z" fill="#2B2B2B"/>
<path d="M130.476 595.314H149.957C150.556 595.314 151.041 594.829 151.041 594.23C151.041 593.632 150.556 593.146 149.957 593.146H130.476C129.877 593.146 129.392 593.632 129.392 594.23C129.392 594.829 129.877 595.314 130.476 595.314Z" fill="#2B2B2B"/>
<path d="M181.12 644.37H179.218V637.268C179.218 636.67 178.732 636.184 178.134 636.184C177.535 636.184 177.05 636.67 177.05 637.268V644.37C172.404 644.37 119.817 644.37 116.95 644.37V607.763C116.95 606.288 118.15 605.089 119.624 605.089H124.768V608.009H121.946C120.802 608.009 119.871 608.94 119.871 610.085V639.374C119.871 640.518 120.802 641.449 121.946 641.449H172.054C173.198 641.449 174.129 640.518 174.129 639.374V610.085C174.129 608.94 173.198 608.009 172.054 608.009H169.232V605.089H174.376C175.85 605.089 177.05 606.288 177.05 607.763V632.198C177.05 632.796 177.535 633.282 178.134 633.282C178.732 633.282 179.218 632.796 179.218 632.198V607.763C179.218 605.093 177.046 602.921 174.376 602.921H169.232V590.991C169.232 589.766 168.234 588.769 167.009 588.769H126.991C125.766 588.769 124.768 589.766 124.768 590.991V602.921H119.624C116.954 602.921 114.782 605.093 114.782 607.763V644.37H112.88C111.292 644.37 110 645.662 110 647.25C110 651.651 113.581 655.232 117.982 655.232H176.018C180.419 655.232 184 651.651 184 647.25C184 645.661 182.708 644.37 181.12 644.37ZM122.039 610.177H124.768V639.281H122.039V610.177ZM171.961 610.177V639.281H169.232V610.177H171.961ZM126.991 590.937H167.009C167.039 590.937 167.064 590.961 167.064 590.992V597.524H135.416C134.818 597.524 134.332 598.01 134.332 598.608C134.332 599.207 134.818 599.692 135.416 599.692H167.064V639.282H126.936V599.692H130.349C130.947 599.692 131.433 599.207 131.433 598.608C131.433 598.01 130.947 597.524 130.349 597.524H126.936V590.991C126.936 590.961 126.961 590.937 126.991 590.937ZM136.55 646.538H157.45V647.627C157.45 648.228 156.961 648.717 156.36 648.717H137.64C137.039 648.717 136.55 648.228 136.55 647.627V646.538ZM176.018 653.064H117.982C114.776 653.064 112.168 650.455 112.168 647.249C112.168 646.857 112.487 646.538 112.88 646.538H134.382V647.627C134.382 649.423 135.844 650.885 137.64 650.885H156.36C158.156 650.885 159.618 649.423 159.618 647.627V646.538H181.12C181.513 646.538 181.832 646.857 181.832 647.249C181.832 650.456 179.224 653.064 176.018 653.064Z" fill="#2B2B2B"/>
<path d="M132.548 619.811L131.762 620.014C130.018 620.463 128.97 622.239 129.419 623.984L129.962 626.09C130.34 627.559 131.667 628.537 133.119 628.537C133.742 628.537 134.091 628.373 134.846 628.198C135.396 628.838 136.233 629.193 137.101 629.109L140.902 634.871C141.297 635.47 141.962 635.816 142.657 635.816C143.088 635.816 143.274 635.708 144.412 635.432C145.537 635.142 146.213 633.997 145.923 632.872L144.474 627.246L146.021 626.848C150.141 625.787 154.481 626.802 157.698 629.564L157.711 629.617C157.92 630.428 158.432 631.109 159.153 631.535C159.643 631.823 160.188 631.971 160.741 631.971C161.004 631.971 161.268 631.938 161.529 631.871C162.34 631.662 163.02 631.149 163.446 630.428C163.872 629.707 163.991 628.864 163.782 628.053L158.001 605.613C157.792 604.802 157.28 604.121 156.558 603.695C155.838 603.27 154.994 603.15 154.183 603.359C153.372 603.568 152.691 604.08 152.266 604.801C151.84 605.522 151.721 606.366 151.93 607.177L151.943 607.229C150.462 611.202 147.153 614.189 143.033 615.25L134.521 617.443C133.396 617.733 132.628 618.711 132.548 619.811ZM133.391 626.334C132.808 626.484 132.211 626.132 132.061 625.549L131.518 623.443C131.368 622.858 131.719 622.264 132.303 622.113L132.954 621.946L134.042 626.166L133.391 626.334ZM143.807 633.349L142.686 633.638L139.342 628.569L142.374 627.787L143.807 633.349ZM154.133 605.903C154.264 605.681 154.474 605.523 154.724 605.458C154.804 605.438 154.885 605.428 154.965 605.428C155.395 605.428 155.789 605.718 155.901 606.153L161.683 628.594C161.816 629.11 161.504 629.638 160.988 629.771C160.472 629.904 159.944 629.592 159.811 629.076L154.029 606.636C153.965 606.386 154.001 606.126 154.133 605.903ZM152.779 610.474L156.862 626.319C151.017 622.914 145.452 624.782 145.323 624.789L143.417 617.39C143.534 617.333 149.302 616.29 152.779 610.474ZM135.062 619.542L141.317 617.931L143.223 625.33C141.32 625.82 138.282 626.603 136.969 626.941C136.514 627.058 136.399 626.598 136.388 626.583L134.722 620.119C134.657 619.866 134.81 619.608 135.062 619.542Z" fill="#2B2B2B"/>
</g>
<g clip-path="url(#clip11_3_70)">
<path d="M268 581C260.018 581 253.522 587.753 253.522 596.053V618C253.522 626.301 260.018 633.053 268 633.053C275.982 633.053 282.478 626.301 282.478 618V596.053C282.478 587.753 275.982 581 268 581ZM268 629.835C262.312 629.835 257.606 625.374 256.855 619.609H279.143C278.394 625.376 273.688 629.835 268 629.835ZM279.261 616.391H256.739V596.053C256.739 589.526 261.79 584.217 268 584.217C274.21 584.217 279.261 589.526 279.261 596.053V616.391Z" fill="#2B2B2B"/>
<path d="M290.522 609.957C289.634 609.957 288.913 610.677 288.913 611.565V618C288.913 629.531 279.531 638.913 268 638.913C256.469 638.913 247.087 629.531 247.087 618V611.565C247.087 610.677 246.366 609.957 245.478 609.957C244.59 609.957 243.87 610.677 243.87 611.565V618C243.87 630.762 253.835 641.215 266.391 642.048V651.783H258.348C257.46 651.783 256.739 652.503 256.739 653.391C256.739 654.279 257.46 655 258.348 655H277.652C278.54 655 279.261 654.279 279.261 653.391C279.261 652.503 278.54 651.783 277.652 651.783H269.609V642.048C282.165 641.215 292.13 630.762 292.13 618V611.565C292.13 610.677 291.41 609.957 290.522 609.957Z" fill="#2B2B2B"/>
</g>
<g clip-path="url(#clip12_3_70)">
<path d="M833 410C838.52 410 843 414.48 843 420C843 425.52 838.52 430 833 430C827.48 430 823 425.52 823 420C823 414.48 827.48 410 833 410ZM833 412C828.58 412 825 415.58 825 420C825 424.42 828.58 428 833 428C837.42 428 841 424.42 841 420C841 415.58 837.42 412 833 412ZM833 415C834.82 415 836.413 415.973 837.288 417.428L835.574 418.457C835.304 418.007 834.921 417.636 834.463 417.38C834.005 417.125 833.489 416.994 832.964 417C832.44 417.007 831.926 417.151 831.475 417.417C831.023 417.684 830.65 418.065 830.391 418.521C830.133 418.977 829.998 419.494 830.001 420.018C830.004 420.542 830.145 421.057 830.409 421.51C830.673 421.963 831.051 422.339 831.506 422.601C831.96 422.862 832.476 423 833 423C833.518 423 834.028 422.866 834.478 422.611C834.929 422.356 835.307 421.988 835.573 421.544L837.288 422.572C836.726 423.511 835.872 424.239 834.856 424.645C833.84 425.052 832.719 425.114 831.665 424.822C830.611 424.53 829.681 423.9 829.019 423.029C828.357 422.158 827.999 421.094 828 420C828 417.24 830.24 415 833 415Z" fill="#1B1B1B"/>
</g>
<rect x="631" y="800" width="159" height="35" fill="#FFB400"/>
<path d="M662.538 815.617H664.312C664.278 813.897 662.811 812.679 660.643 812.679C658.506 812.679 656.9 813.882 656.905 815.682C656.905 817.143 657.944 817.984 659.619 818.416L660.778 818.714C661.876 818.993 662.602 819.336 662.607 820.126C662.602 820.996 661.777 821.578 660.574 821.578C659.42 821.578 658.526 821.061 658.451 819.992H656.636C656.711 822.016 658.217 823.154 660.589 823.154C663.03 823.154 664.447 821.936 664.452 820.141C664.447 818.376 662.99 817.571 661.459 817.208L660.504 816.969C659.669 816.771 658.764 816.418 658.774 815.567C658.779 814.802 659.465 814.24 660.619 814.24C661.717 814.24 662.443 814.752 662.538 815.617ZM666.096 823H672.758V821.454H667.941V818.675H672.375V817.129H667.941V814.364H672.718V812.818H666.096V823ZM682.967 812.818H681.133V819.759H681.043L676.251 812.818H674.6V823H676.444V816.065H676.529L681.327 823H682.967V812.818ZM688.427 823C691.529 823 693.369 821.081 693.369 817.899C693.369 814.727 691.529 812.818 688.497 812.818H684.977V823H688.427ZM686.821 821.404V814.414H688.392C690.461 814.414 691.539 815.567 691.539 817.899C691.539 820.241 690.461 821.404 688.338 821.404H686.821ZM698.594 812.818V823H700.364V815.99H700.458L703.272 822.97H704.595L707.409 816.005H707.503V823H709.273V812.818H707.016L703.993 820.196H703.874L700.851 812.818H698.594ZM711.282 823H717.944V821.454H713.126V818.675H717.561V817.129H713.126V814.364H717.904V812.818H711.282V823ZM725.319 815.617H727.094C727.059 813.897 725.592 812.679 723.425 812.679C721.287 812.679 719.681 813.882 719.686 815.682C719.686 817.143 720.725 817.984 722.401 818.416L723.559 818.714C724.658 818.993 725.384 819.336 725.388 820.126C725.384 820.996 724.558 821.578 723.355 821.578C722.202 821.578 721.307 821.061 721.232 819.992H719.418C719.492 822.016 720.999 823.154 723.37 823.154C725.811 823.154 727.228 821.936 727.233 820.141C727.228 818.376 725.771 817.571 724.24 817.208L723.286 816.969C722.45 816.771 721.545 816.418 721.555 815.567C721.56 814.802 722.246 814.24 723.4 814.24C724.499 814.24 725.224 814.752 725.319 815.617ZM734.411 815.617H736.186C736.151 813.897 734.684 812.679 732.517 812.679C730.379 812.679 728.773 813.882 728.778 815.682C728.778 817.143 729.817 817.984 731.492 818.416L732.651 818.714C733.749 818.993 734.475 819.336 734.48 820.126C734.475 820.996 733.65 821.578 732.447 821.578C731.294 821.578 730.399 821.061 730.324 819.992H728.509C728.584 822.016 730.09 823.154 732.462 823.154C734.903 823.154 736.32 821.936 736.325 820.141C736.32 818.376 734.863 817.571 733.332 817.208L732.377 816.969C731.542 816.771 730.637 816.418 730.647 815.567C730.652 814.802 731.338 814.24 732.492 814.24C733.59 814.24 734.316 814.752 734.411 815.617ZM739.113 823L739.953 820.489H743.781L744.626 823H746.595L743.005 812.818H740.728L737.144 823H739.113ZM740.45 819.008L741.827 814.906H741.907L743.284 819.008H740.45ZM754.278 816.07H756.158C755.844 814.071 754.114 812.679 751.862 812.679C749.197 812.679 747.199 814.638 747.199 817.919C747.199 821.141 749.108 823.139 751.917 823.139C754.438 823.139 756.242 821.518 756.242 818.893V817.67H752.111V819.112H754.457C754.428 820.564 753.458 821.484 751.927 821.484C750.222 821.484 749.053 820.206 749.053 817.899C749.053 815.607 750.241 814.335 751.887 814.335C753.115 814.335 753.95 814.991 754.278 816.07ZM758.026 823H764.688V821.454H759.87V818.675H764.305V817.129H759.87V814.364H764.648V812.818H758.026V823Z" fill="white"/>
<g clip-path="url(#clip13_3_70)">
<path d="M893.5 203.75L898.75 201.5L903.25 203.75L907.977 201.724C908.034 201.7 908.097 201.69 908.158 201.695C908.22 201.701 908.28 201.722 908.332 201.756C908.383 201.79 908.426 201.837 908.455 201.891C908.485 201.946 908.5 202.007 908.5 202.069V214.25L903.25 216.5L898.75 214.25L894.023 216.276C893.966 216.3 893.903 216.31 893.842 216.305C893.78 216.299 893.72 216.278 893.668 216.244C893.617 216.21 893.574 216.163 893.545 216.109C893.515 216.054 893.5 215.993 893.5 215.931V203.75ZM903.25 214.823V205.382L903.201 205.403L898.75 203.177V212.618L898.799 212.597L903.25 214.823Z" fill="#2B2B2B"/>
</g>
<g clip-path="url(#clip14_3_70)">
<path d="M894.25 255.25H907.75C907.949 255.25 908.14 255.329 908.28 255.47C908.421 255.61 908.5 255.801 908.5 256V268C908.5 268.199 908.421 268.39 908.28 268.53C908.14 268.671 907.949 268.75 907.75 268.75H894.25C894.051 268.75 893.86 268.671 893.72 268.53C893.579 268.39 893.5 268.199 893.5 268V256C893.5 255.801 893.579 255.61 893.72 255.47C893.86 255.329 894.051 255.25 894.25 255.25ZM901.045 261.762L896.236 257.678L895.265 258.822L901.055 263.738L906.74 258.818L905.76 257.683L901.046 261.762H901.045Z" fill="#2B2B2B"/>
</g>
<g clip-path="url(#clip15_3_70)">
<path d="M896.5 290.5H905.5C905.699 290.5 905.89 290.579 906.03 290.72C906.171 290.86 906.25 291.051 906.25 291.25V304.75C906.25 304.949 906.171 305.14 906.03 305.28C905.89 305.421 905.699 305.5 905.5 305.5H896.5C896.301 305.5 896.11 305.421 895.97 305.28C895.829 305.14 895.75 304.949 895.75 304.75V291.25C895.75 291.051 895.829 290.86 895.97 290.72C896.11 290.579 896.301 290.5 896.5 290.5ZM901 301.75C900.801 301.75 900.61 301.829 900.47 301.97C900.329 302.11 900.25 302.301 900.25 302.5C900.25 302.699 900.329 302.89 900.47 303.03C900.61 303.171 900.801 303.25 901 303.25C901.199 303.25 901.39 303.171 901.53 303.03C901.671 302.89 901.75 302.699 901.75 302.5C901.75 302.301 901.671 302.11 901.53 301.97C901.39 301.829 901.199 301.75 901 301.75Z" fill="#2B2B2B"/>
</g>
<rect x="593" y="866" width="234" height="53" fill="#FFB400"/>
<path d="M675.298 891.045H677.324C676.883 888.494 674.703 886.73 671.878 886.73C668.49 886.73 666.016 889.281 666.016 893.461C666.016 897.603 668.42 900.179 671.967 900.179C675.144 900.179 677.413 898.095 677.413 894.79V893.301H672.268V894.931H675.502C675.457 897.04 674.064 898.376 671.967 898.376C669.66 898.376 667.979 896.631 667.979 893.448C667.979 890.278 669.673 888.533 671.891 888.533C673.629 888.533 674.805 889.491 675.298 891.045ZM683.903 900.198C686.671 900.198 688.48 898.172 688.48 895.136C688.48 892.08 686.671 890.054 683.903 890.054C681.135 890.054 679.326 892.08 679.326 895.136C679.326 898.172 681.135 900.198 683.903 900.198ZM683.909 898.594C682.1 898.594 681.257 897.015 681.257 895.129C681.257 893.25 682.1 891.652 683.909 891.652C685.705 891.652 686.549 893.25 686.549 895.129C686.549 897.015 685.705 898.594 683.909 898.594ZM695.53 900H700.548C703.59 900 704.965 898.485 704.965 896.478C704.965 894.452 703.546 893.308 702.248 893.237V893.109C703.45 892.803 704.453 891.984 704.453 890.348C704.453 888.411 703.111 886.909 700.324 886.909H695.53V900ZM697.505 898.306V894.113H700.426C702.012 894.113 703.002 895.136 703.002 896.382C703.002 897.482 702.254 898.306 700.356 898.306H697.505ZM697.505 892.572V888.59H700.203C701.769 888.59 702.517 889.415 702.517 890.501C702.517 891.767 701.481 892.572 700.151 892.572H697.505ZM710.011 900.217C711.635 900.217 712.549 899.393 712.913 898.658H712.99V900H714.856V893.48C714.856 890.623 712.606 890.054 711.047 890.054C709.27 890.054 707.633 890.77 706.994 892.56L708.79 892.969C709.072 892.272 709.787 891.601 711.072 891.601C712.306 891.601 712.939 892.246 712.939 893.359V893.403C712.939 894.1 712.223 894.087 710.459 894.292C708.599 894.509 706.694 894.995 706.694 897.226C706.694 899.156 708.145 900.217 710.011 900.217ZM710.427 898.683C709.346 898.683 708.567 898.197 708.567 897.251C708.567 896.229 709.474 895.864 710.58 895.717C711.2 895.634 712.67 895.468 712.945 895.193V896.459C712.945 897.622 712.018 898.683 710.427 898.683ZM721.538 900.198C723.858 900.198 725.36 898.805 725.571 896.893H723.711C723.468 897.955 722.643 898.581 721.55 898.581C719.933 898.581 718.891 897.232 718.891 895.091C718.891 892.988 719.952 891.665 721.55 891.665C722.765 891.665 723.506 892.432 723.711 893.352H725.571C725.366 891.371 723.749 890.054 721.518 890.054C718.751 890.054 716.961 892.138 716.961 895.136C716.961 898.095 718.687 900.198 721.538 900.198ZM727.615 900H729.526V896.516L730.479 895.564L733.815 900H736.161L731.917 894.394L735.893 890.182H733.604L729.692 894.337H729.526V886.909H727.615V900ZM742.551 900H744.527V894.292H751.053V900H753.034V886.909H751.053V892.598H744.527V886.909H742.551V900ZM759.893 900.198C762.661 900.198 764.47 898.172 764.47 895.136C764.47 892.08 762.661 890.054 759.893 890.054C757.125 890.054 755.316 892.08 755.316 895.136C755.316 898.172 757.125 900.198 759.893 900.198ZM759.9 898.594C758.091 898.594 757.247 897.015 757.247 895.129C757.247 893.25 758.091 891.652 759.9 891.652C761.696 891.652 762.539 893.25 762.539 895.129C762.539 897.015 761.696 898.594 759.9 898.594ZM766.603 900H768.514V893.947C768.514 892.624 769.441 891.703 770.528 891.703C771.589 891.703 772.324 892.406 772.324 893.474V900H774.229V893.742C774.229 892.56 774.951 891.703 776.198 891.703C777.208 891.703 778.039 892.266 778.039 893.595V900H779.95V893.416C779.95 891.173 778.697 890.054 776.92 890.054C775.507 890.054 774.446 890.732 773.973 891.78H773.871C773.443 890.706 772.541 890.054 771.231 890.054C769.933 890.054 768.968 890.7 768.559 891.78H768.438V890.182H766.603V900ZM786.743 900.198C788.884 900.198 790.399 899.143 790.834 897.545L789.025 897.219C788.68 898.146 787.849 898.619 786.762 898.619C785.126 898.619 784.026 897.558 783.975 895.666H790.955V894.989C790.955 891.441 788.833 890.054 786.609 890.054C783.873 890.054 782.07 892.138 782.07 895.155C782.07 898.204 783.847 900.198 786.743 900.198ZM783.982 894.234C784.058 892.841 785.068 891.633 786.621 891.633C788.104 891.633 789.076 892.732 789.082 894.234H783.982Z" fill="#2B2B2B"/>
<path d="M627.646 892.646C627.451 892.842 627.451 893.158 627.646 893.354L630.828 896.536C631.024 896.731 631.34 896.731 631.536 896.536C631.731 896.34 631.731 896.024 631.536 895.828L628.707 893L631.536 890.172C631.731 889.976 631.731 889.66 631.536 889.464C631.34 889.269 631.024 889.269 630.828 889.464L627.646 892.646ZM653 892.5H628V893.5H653V892.5Z" fill="#2B2B2B"/>
<path d="M681.278 544H683.034V538.926H688.835V544H690.597V532.364H688.835V537.42H683.034V532.364H681.278V544ZM693.017 544H694.716V535.273H693.017V544ZM693.875 533.926C694.46 533.926 694.949 533.472 694.949 532.915C694.949 532.358 694.46 531.898 693.875 531.898C693.284 531.898 692.801 532.358 692.801 532.915C692.801 533.472 693.284 533.926 693.875 533.926ZM697.001 544H698.7V538.67C698.7 537.528 699.581 536.705 700.786 536.705C701.138 536.705 701.536 536.767 701.672 536.807V535.182C701.501 535.159 701.166 535.142 700.95 535.142C699.928 535.142 699.053 535.722 698.734 536.659H698.643V535.273H697.001V544ZM706.591 544.176C708.494 544.176 709.841 543.239 710.227 541.818L708.619 541.528C708.312 542.352 707.574 542.773 706.608 542.773C705.153 542.773 704.176 541.83 704.131 540.148H710.335V539.545C710.335 536.392 708.449 535.159 706.472 535.159C704.04 535.159 702.438 537.011 702.438 539.693C702.438 542.403 704.017 544.176 706.591 544.176ZM704.136 538.875C704.205 537.636 705.102 536.562 706.483 536.562C707.801 536.562 708.665 537.54 708.67 538.875H704.136ZM716.591 532.364V544H718.261V535.574H718.369L721.801 543.983H723.188L726.619 535.58H726.727V544H728.398V532.364H726.267L722.562 541.409H722.426L718.722 532.364H716.591ZM734.575 544.176C736.479 544.176 737.825 543.239 738.212 541.818L736.604 541.528C736.297 542.352 735.558 542.773 734.592 542.773C733.138 542.773 732.161 541.83 732.115 540.148H738.32V539.545C738.32 536.392 736.433 535.159 734.456 535.159C732.024 535.159 730.422 537.011 730.422 539.693C730.422 542.403 732.001 544.176 734.575 544.176ZM732.121 538.875C732.189 537.636 733.087 536.562 734.467 536.562C735.786 536.562 736.649 537.54 736.655 538.875H732.121Z" fill="#2B2B2B"/>
<rect x="648.5" y="518.5" width="123" height="39" stroke="#2B2B2B"/>
<path d="M648.438 483H656.345V481.3H650.413V469.909H648.438V483ZM662.676 483.198C664.818 483.198 666.333 482.143 666.767 480.545L664.958 480.219C664.613 481.146 663.782 481.619 662.696 481.619C661.059 481.619 659.96 480.558 659.909 478.666H666.889V477.989C666.889 474.441 664.767 473.054 662.542 473.054C659.806 473.054 658.004 475.138 658.004 478.155C658.004 481.204 659.781 483.198 662.676 483.198ZM659.915 477.234C659.992 475.841 661.002 474.633 662.555 474.633C664.038 474.633 665.01 475.732 665.016 477.234H659.915ZM671.867 483.217C673.49 483.217 674.404 482.393 674.769 481.658H674.845V483H676.712V476.48C676.712 473.623 674.462 473.054 672.902 473.054C671.125 473.054 669.489 473.77 668.85 475.56L670.646 475.969C670.927 475.272 671.643 474.601 672.928 474.601C674.161 474.601 674.794 475.246 674.794 476.359V476.403C674.794 477.1 674.078 477.087 672.314 477.292C670.454 477.509 668.549 477.995 668.549 480.226C668.549 482.156 670 483.217 671.867 483.217ZM672.282 481.683C671.202 481.683 670.422 481.197 670.422 480.251C670.422 479.229 671.33 478.864 672.436 478.717C673.056 478.634 674.526 478.468 674.801 478.193V479.459C674.801 480.622 673.874 481.683 672.282 481.683ZM679.257 483H681.169V477.004C681.169 475.719 682.159 474.793 683.515 474.793C683.911 474.793 684.358 474.863 684.512 474.908V473.08C684.32 473.054 683.943 473.035 683.7 473.035C682.549 473.035 681.565 473.687 681.207 474.741H681.105V473.182H679.257V483ZM688.077 477.17C688.077 475.604 689.036 474.71 690.365 474.71C691.663 474.71 692.449 475.56 692.449 476.985V483H694.36V476.755C694.36 474.326 693.024 473.054 691.017 473.054C689.541 473.054 688.575 473.738 688.122 474.78H688V473.182H686.166V483H688.077V477.17ZM701.841 469.909V483H703.72V473.521H703.841L707.702 482.981H709.262L713.123 473.527H713.244V483H715.123V469.909H712.726L708.559 480.085H708.405L704.238 469.909H701.841ZM721.977 483.198C724.745 483.198 726.554 481.172 726.554 478.136C726.554 475.08 724.745 473.054 721.977 473.054C719.209 473.054 717.4 475.08 717.4 478.136C717.4 481.172 719.209 483.198 721.977 483.198ZM721.983 481.594C720.175 481.594 719.331 480.015 719.331 478.129C719.331 476.25 720.175 474.652 721.983 474.652C723.78 474.652 724.623 476.25 724.623 478.129C724.623 480.015 723.78 481.594 721.983 481.594ZM728.687 483H730.598V477.004C730.598 475.719 731.589 474.793 732.944 474.793C733.341 474.793 733.788 474.863 733.941 474.908V473.08C733.75 473.054 733.373 473.035 733.13 473.035C731.979 473.035 730.995 473.687 730.637 474.741H730.534V473.182H728.687V483ZM739.475 483.198C741.617 483.198 743.132 482.143 743.566 480.545L741.757 480.219C741.412 481.146 740.581 481.619 739.494 481.619C737.858 481.619 736.759 480.558 736.708 478.666H743.688V477.989C743.688 474.441 741.566 473.054 739.341 473.054C736.605 473.054 734.803 475.138 734.803 478.155C734.803 481.204 736.58 483.198 739.475 483.198ZM736.714 477.234C736.791 475.841 737.801 474.633 739.354 474.633C740.837 474.633 741.808 475.732 741.815 477.234H736.714Z" fill="#FFB400"/>
<g clip-path="url(#clip16_3_70)">
<path d="M759.879 478L756.167 474.288L757.227 473.227L762 478L757.227 482.773L756.167 481.713L759.879 478Z" fill="#FFB400"/>
</g>
<g clip-path="url(#clip17_3_70)">
<path d="M609 208C609 208.199 608.921 208.39 608.78 208.53C608.64 208.671 608.449 208.75 608.25 208.75H597.75C597.551 208.75 597.36 208.671 597.22 208.53C597.079 208.39 597 208.199 597 208V201.25H594.75L602.495 194.209C602.633 194.083 602.813 194.014 603 194.014C603.187 194.014 603.367 194.083 603.505 194.209L611.25 201.25H609V208Z" fill="#2B2B2B"/>
</g>
<g clip-path="url(#clip18_3_70)">
<path d="M600.75 283.75V286H605.25V283.75H610.5V289C610.5 289.199 610.421 289.39 610.28 289.53C610.14 289.671 609.949 289.75 609.75 289.75H596.25C596.051 289.75 595.86 289.671 595.72 289.53C595.579 289.39 595.5 289.199 595.5 289V283.75H600.75ZM602.25 282.25H603.75V284.5H602.25V282.25ZM599.25 277.75V275.5C599.25 275.301 599.329 275.11 599.47 274.97C599.61 274.829 599.801 274.75 600 274.75H606C606.199 274.75 606.39 274.829 606.53 274.97C606.671 275.11 606.75 275.301 606.75 275.5V277.75H609.75C609.949 277.75 610.14 277.829 610.28 277.97C610.421 278.11 610.5 278.301 610.5 278.5V282.25H605.25V280.75H600.75V282.25H595.5V278.5C595.5 278.301 595.579 278.11 595.72 277.97C595.86 277.829 596.051 277.75 596.25 277.75H599.25ZM600.75 276.25V277.75H605.25V276.25H600.75Z" fill="#2B2B2B"/>
</g>
<g clip-path="url(#clip19_3_70)">
<path d="M609.75 302.5C598.5 302.5 597 313 596.25 317.5H597.749C598.248 315 599.498 313.625 601.5 313.375C604.5 313 606.75 310.375 607.5 308.125L606.375 307.375L607.125 306.625C607.875 305.875 608.628 304.75 609.75 302.5Z" fill="#2B2B2B"/>
</g>
<g clip-path="url(#clip20_3_70)">
<path d="M598.841 342.25L595.5 344.875V331C595.5 330.801 595.579 330.61 595.72 330.47C595.86 330.329 596.051 330.25 596.25 330.25H609.75C609.949 330.25 610.14 330.329 610.28 330.47C610.421 330.61 610.5 330.801 610.5 331V341.5C610.5 341.699 610.421 341.89 610.28 342.03C610.14 342.171 609.949 342.25 609.75 342.25H598.841Z" fill="#2B2B2B"/>
</g>
<g clip-path="url(#clip21_3_70)">
<path d="M611.5 224.287V224.5H606V220H606.26C606.534 220 606.796 220.089 606.99 220.247L611.198 223.69C611.391 223.849 611.5 224.063 611.5 224.287ZM605.656 225.625C605.089 225.625 604.625 225.245 604.625 224.781V220H596.031C595.462 220 595 220.378 595 220.844V237.156C595 237.622 595.462 238 596.031 238H610.469C611.038 238 611.5 237.622 611.5 237.156V225.625H605.656ZM600.294 234.08C600.273 234.098 600.248 234.113 600.22 234.123C600.193 234.134 600.163 234.139 600.132 234.14C600.102 234.141 600.071 234.137 600.043 234.128C600.014 234.119 599.988 234.106 599.966 234.089L597.179 231.951C597.156 231.933 597.137 231.912 597.125 231.888C597.112 231.864 597.105 231.838 597.105 231.812C597.105 231.787 597.112 231.761 597.125 231.737C597.137 231.713 597.156 231.692 597.179 231.674L599.966 229.536C599.988 229.519 600.014 229.506 600.043 229.497C600.071 229.488 600.102 229.484 600.132 229.485C600.163 229.486 600.193 229.491 600.22 229.502C600.248 229.512 600.273 229.527 600.294 229.545L601.135 230.279C601.157 230.298 601.173 230.319 601.184 230.343C601.195 230.367 601.199 230.392 601.198 230.418C601.196 230.443 601.189 230.468 601.175 230.491C601.162 230.514 601.143 230.535 601.119 230.551L599.368 231.812L601.119 233.074C601.143 233.09 601.162 233.111 601.175 233.134C601.189 233.157 601.196 233.182 601.198 233.207C601.199 233.233 601.195 233.258 601.184 233.282C601.173 233.306 601.157 233.327 601.135 233.346L600.294 234.08ZM602.498 235.855L601.318 235.575C601.259 235.561 601.21 235.528 601.18 235.484C601.15 235.44 601.143 235.388 601.16 235.339L603.8 227.899C603.817 227.851 603.857 227.81 603.911 227.786C603.965 227.762 604.029 227.756 604.088 227.77L605.267 228.05C605.297 228.057 605.324 228.069 605.348 228.084C605.372 228.1 605.391 228.119 605.406 228.141C605.421 228.163 605.43 228.187 605.433 228.212C605.437 228.236 605.434 228.262 605.426 228.286L602.786 235.725C602.777 235.749 602.763 235.772 602.744 235.791C602.725 235.811 602.701 235.827 602.675 235.839C602.648 235.851 602.619 235.859 602.588 235.861C602.558 235.864 602.527 235.862 602.498 235.855ZM609.407 231.951L606.62 234.089C606.598 234.106 606.572 234.119 606.543 234.128C606.515 234.137 606.484 234.141 606.454 234.14C606.423 234.139 606.393 234.134 606.366 234.123C606.338 234.113 606.313 234.098 606.292 234.08L605.451 233.346C605.429 233.327 605.413 233.306 605.402 233.282C605.391 233.258 605.387 233.232 605.388 233.207C605.39 233.182 605.397 233.157 605.411 233.134C605.424 233.111 605.443 233.09 605.467 233.074L607.218 231.812L605.467 230.551C605.443 230.535 605.424 230.514 605.411 230.491C605.397 230.468 605.39 230.443 605.388 230.418C605.387 230.392 605.391 230.367 605.402 230.343C605.413 230.319 605.429 230.298 605.451 230.279L606.292 229.545C606.313 229.527 606.338 229.512 606.366 229.502C606.393 229.491 606.423 229.486 606.454 229.485C606.484 229.484 606.515 229.488 606.543 229.497C606.572 229.506 606.598 229.519 606.62 229.536L609.407 231.674C609.43 231.692 609.449 231.713 609.461 231.737C609.474 231.761 609.48 231.787 609.48 231.812C609.48 231.838 609.474 231.864 609.461 231.888C609.449 231.912 609.43 231.933 609.407 231.951Z" fill="#1B1B1B"/>
</g>
<g clip-path="url(#clip22_3_70)">
<path d="M606.764 257.272L603.25 260.626L599.736 257.272C597.103 257.381 595 259.438 595 261.976V262.313C595 263.245 595.792 264.001 596.768 264.001H609.732C610.708 264.001 611.5 263.245 611.5 262.313V261.976C611.5 259.438 609.397 257.381 606.764 257.272ZM595.501 248.806L595.737 248.859V250.912C595.479 251.06 595.295 251.317 595.295 251.626C595.295 251.921 595.464 252.167 595.703 252.318L595.129 254.509C595.066 254.751 595.206 255.001 595.409 255.001H596.948C597.151 255.001 597.291 254.751 597.228 254.509L596.654 252.318C596.893 252.167 597.062 251.921 597.062 251.626C597.062 251.317 596.878 251.06 596.621 250.912V249.063L599.051 249.622C598.735 250.227 598.536 250.902 598.536 251.626C598.536 254.111 600.646 256.126 603.25 256.126C605.854 256.126 607.964 254.111 607.964 251.626C607.964 250.902 607.769 250.227 607.449 249.622L610.995 248.806C611.666 248.652 611.666 247.854 610.995 247.699L603.983 246.082C603.504 245.973 603 245.973 602.521 246.082L595.501 247.695C594.834 247.85 594.834 248.652 595.501 248.806Z" fill="black"/>
</g>
<rect x="603" y="667" width="220" height="40" fill="#FFB400"/>
<path d="M647.455 691C650.557 691 652.396 689.081 652.396 685.899C652.396 682.727 650.557 680.818 647.524 680.818H644.004V691H647.455ZM645.849 689.404V682.414H647.42C649.488 682.414 650.567 683.567 650.567 685.899C650.567 688.241 649.488 689.404 647.365 689.404H645.849ZM663.247 685.909C663.247 682.618 661.238 680.679 658.569 680.679C655.894 680.679 653.89 682.618 653.89 685.909C653.89 689.195 655.894 691.139 658.569 691.139C661.238 691.139 663.247 689.2 663.247 685.909ZM661.392 685.909C661.392 688.226 660.229 689.484 658.569 689.484C656.913 689.484 655.745 688.226 655.745 685.909C655.745 683.592 656.913 682.335 658.569 682.335C660.229 682.335 661.392 683.592 661.392 685.909ZM666.874 691H668.693L670.737 683.856H670.816L672.854 691H674.674L677.548 680.818H675.564L673.729 688.305H673.64L671.676 680.818H669.871L667.913 688.3H667.818L665.984 680.818H664L666.874 691ZM687.194 680.818H685.359V687.759H685.27L680.477 680.818H678.827V691H680.671V684.065H680.756L685.553 691H687.194V680.818ZM689.203 691H695.532V689.454H691.048V680.818H689.203V691ZM705.835 685.909C705.835 682.618 703.826 680.679 701.156 680.679C698.482 680.679 696.478 682.618 696.478 685.909C696.478 689.195 698.482 691.139 701.156 691.139C703.826 691.139 705.835 689.2 705.835 685.909ZM703.98 685.909C703.98 688.226 702.817 689.484 701.156 689.484C699.501 689.484 698.333 688.226 698.333 685.909C698.333 683.592 699.501 682.335 701.156 682.335C702.817 682.335 703.98 683.592 703.98 685.909ZM708.339 691L709.179 688.489H713.007L713.853 691H715.821L712.232 680.818H709.955L706.37 691H708.339ZM709.676 687.008L711.054 682.906H711.133L712.51 687.008H709.676ZM720.613 691C723.715 691 725.555 689.081 725.555 685.899C725.555 682.727 723.715 680.818 720.682 680.818H717.162V691H720.613ZM719.007 689.404V682.414H720.578C722.646 682.414 723.725 683.567 723.725 685.899C723.725 688.241 722.646 689.404 720.523 689.404H719.007ZM739.495 684.254C739.182 681.991 737.442 680.679 735.184 680.679C732.525 680.679 730.521 682.618 730.521 685.909C730.521 689.195 732.5 691.139 735.184 691.139C737.606 691.139 739.211 689.573 739.495 687.629L737.635 687.619C737.402 688.812 736.427 689.484 735.209 689.484C733.559 689.484 732.376 688.246 732.376 685.909C732.376 683.612 733.549 682.335 735.214 682.335C736.452 682.335 737.422 683.036 737.635 684.254H739.495ZM742.546 680.818H740.523L744.107 691H746.384L749.974 680.818H747.945L745.3 688.832H745.196L742.546 680.818Z" fill="white"/>
<g clip-path="url(#clip23_3_70)">
<path d="M772.333 691.952H781.667V687.286H782.833V692.619C782.833 692.796 782.772 692.965 782.663 693.09C782.553 693.215 782.405 693.286 782.25 693.286H771.75C771.595 693.286 771.447 693.215 771.338 693.09C771.228 692.965 771.167 692.796 771.167 692.619V687.286H772.333V691.952ZM778.167 685.286H781.083L777 689.952L772.917 685.286H775.833V681.286H778.167V685.286Z" fill="white"/>
</g>
<rect x="971" y="538" width="202" height="64" rx="8" fill="#FFB400"/>
<g clip-path="url(#clip24_3_70)">
<path d="M1004.52 579V561.545H1008.21V568.747H1015.7V561.545H1019.38V579H1015.7V571.79H1008.21V579H1004.52ZM1026.11 561.545V579H1022.42V561.545H1026.11ZM1029.15 579V561.545H1036.04C1037.35 561.545 1038.48 561.781 1039.41 562.253C1040.35 562.719 1041.06 563.381 1041.55 564.239C1042.04 565.091 1042.29 566.094 1042.29 567.247C1042.29 568.406 1042.04 569.403 1041.54 570.239C1041.04 571.068 1040.32 571.705 1039.37 572.148C1038.43 572.591 1037.28 572.812 1035.94 572.812H1031.33V569.847H1035.35C1036.05 569.847 1036.64 569.75 1037.1 569.557C1037.57 569.364 1037.91 569.074 1038.14 568.688C1038.37 568.301 1038.49 567.821 1038.49 567.247C1038.49 566.668 1038.37 566.179 1038.14 565.781C1037.91 565.384 1037.56 565.082 1037.09 564.878C1036.63 564.668 1036.04 564.562 1035.33 564.562H1032.84V579H1029.15ZM1038.58 571.057L1042.91 579H1038.84L1034.6 571.057H1038.58ZM1044.9 579V561.545H1056.66V564.588H1048.59V568.747H1056.06V571.79H1048.59V575.957H1056.7V579H1044.9ZM1065.15 561.545H1069.7L1074.51 573.273H1074.71L1079.52 561.545H1084.07V579H1080.49V567.639H1080.35L1075.83 578.915H1073.39L1068.87 567.597H1068.73V579H1065.15V561.545ZM1087.11 579V561.545H1098.87V564.588H1090.8V568.747H1098.27V571.79H1090.8V575.957H1098.91V579H1087.11Z" fill="white"/>
<path d="M1126.07 570.363L1120.41 576.021L1119 574.606L1124.66 568.95L1119.71 564H1131.02V575.313L1126.07 570.363Z" fill="white"/>
</g>
<rect x="971" y="645" width="154" height="51" rx="5" fill="#FFB400"/>
<path d="M1004.59 676H1006.35V670.926H1012.15V676H1013.91V664.364H1012.15V669.42H1006.35V664.364H1004.59V676ZM1018.22 664.364H1016.47V676H1018.22V664.364ZM1020.78 676H1022.53V671.597H1024.92C1024.96 671.597 1024.99 671.597 1025.03 671.597L1027.4 676H1029.4L1026.82 671.29C1028.24 670.761 1028.95 669.574 1028.95 668.011C1028.95 665.869 1027.62 664.364 1024.93 664.364H1020.78V676ZM1022.53 670.085V665.869H1024.74C1026.47 665.869 1027.19 666.693 1027.19 668.011C1027.19 669.324 1026.47 670.085 1024.76 670.085H1022.53ZM1031.09 676H1038.45V674.489H1032.85V670.926H1038.01V669.42H1032.85V665.875H1038.39V664.364H1031.09V676ZM1044.97 664.364V676H1046.64V667.574H1046.74L1050.18 675.983H1051.56L1054.99 667.58H1055.1V676H1056.77V664.364H1054.64L1050.94 673.409H1050.8L1047.1 664.364H1044.97ZM1059.33 676H1066.69V674.489H1061.08V670.926H1066.24V669.42H1061.08V665.875H1066.62V664.364H1059.33V676Z" fill="#18191A"/>
<g clip-path="url(#clip25_3_70)">
<path d="M1087.78 669.333L1084.21 665.757L1085.15 664.814L1090.33 670L1085.15 675.185L1084.21 674.242L1087.78 670.666H1079.67V669.333H1087.78Z" fill="#18191A"/>
</g>
<rect width="1440" height="140" fill="#FFB400"/>
<path d="M504.043 46.4545V93H494.202V46.4545H504.043ZM553.207 62.75H543.253C543.071 61.4621 542.7 60.3182 542.139 59.3182C541.579 58.303 540.859 57.4394 539.98 56.7273C539.101 56.0151 538.086 55.4697 536.935 55.0909C535.798 54.7121 534.563 54.5227 533.23 54.5227C530.821 54.5227 528.723 55.1212 526.935 56.3182C525.147 57.5 523.76 59.2273 522.776 61.5C521.791 63.7576 521.298 66.5 521.298 69.7273C521.298 73.0455 521.791 75.8333 522.776 78.0909C523.776 80.3485 525.17 82.053 526.957 83.2045C528.745 84.3561 530.813 84.9318 533.162 84.9318C534.48 84.9318 535.7 84.7576 536.821 84.4091C537.957 84.0606 538.965 83.553 539.844 82.8864C540.723 82.2045 541.45 81.3788 542.026 80.4091C542.616 79.4394 543.026 78.3333 543.253 77.0909L553.207 77.1364C552.95 79.2727 552.306 81.3333 551.276 83.3182C550.26 85.2879 548.889 87.053 547.162 88.6136C545.45 90.1591 543.404 91.3864 541.026 92.2955C538.662 93.1894 535.988 93.6364 533.003 93.6364C528.851 93.6364 525.139 92.697 521.866 90.8182C518.609 88.9394 516.033 86.2197 514.139 82.6591C512.26 79.0985 511.321 74.7879 511.321 69.7273C511.321 64.6515 512.276 60.3333 514.185 56.7727C516.094 53.2121 518.685 50.5 521.957 48.6364C525.23 46.7576 528.912 45.8182 533.003 45.8182C535.7 45.8182 538.2 46.197 540.503 46.9545C542.821 47.7121 544.874 48.8182 546.662 50.2727C548.45 51.7121 549.904 53.4773 551.026 55.5682C552.162 57.6591 552.889 60.053 553.207 62.75ZM603.037 69.7273C603.037 74.803 602.075 79.1212 600.151 82.6818C598.241 86.2424 595.635 88.9621 592.332 90.8409C589.045 92.7045 585.348 93.6364 581.241 93.6364C577.105 93.6364 573.393 92.697 570.105 90.8182C566.817 88.9394 564.219 86.2197 562.31 82.6591C560.401 79.0985 559.446 74.7879 559.446 69.7273C559.446 64.6515 560.401 60.3333 562.31 56.7727C564.219 53.2121 566.817 50.5 570.105 48.6364C573.393 46.7576 577.105 45.8182 581.241 45.8182C585.348 45.8182 589.045 46.7576 592.332 48.6364C595.635 50.5 598.241 53.2121 600.151 56.7727C602.075 60.3333 603.037 64.6515 603.037 69.7273ZM593.06 69.7273C593.06 66.4394 592.567 63.6667 591.582 61.4091C590.613 59.1515 589.241 57.4394 587.469 56.2727C585.696 55.1061 583.62 54.5227 581.241 54.5227C578.863 54.5227 576.787 55.1061 575.014 56.2727C573.241 57.4394 571.863 59.1515 570.878 61.4091C569.908 63.6667 569.423 66.4394 569.423 69.7273C569.423 73.0152 569.908 75.7879 570.878 78.0455C571.863 80.303 573.241 82.0152 575.014 83.1818C576.787 84.3485 578.863 84.9318 581.241 84.9318C583.62 84.9318 585.696 84.3485 587.469 83.1818C589.241 82.0152 590.613 80.303 591.582 78.0455C592.567 75.7879 593.06 73.0152 593.06 69.7273ZM649.259 46.4545V93H640.759L620.509 63.7045H620.168V93H610.327V46.4545H618.963L639.054 75.7273H639.463V46.4545H649.259ZM677.48 44.2727L662.48 100H654.139L669.139 44.2727H677.48ZM682.327 93V46.4545H700.963C704.387 46.4545 707.243 46.9621 709.531 47.9773C711.819 48.9924 713.539 50.4015 714.69 52.2045C715.842 53.9924 716.418 56.053 716.418 58.3864C716.418 60.2045 716.054 61.803 715.327 63.1818C714.599 64.5455 713.599 65.6667 712.327 66.5455C711.069 67.4091 709.63 68.0227 708.009 68.3864V68.8409C709.781 68.9167 711.44 69.4167 712.986 70.3409C714.546 71.2652 715.812 72.5606 716.781 74.2273C717.751 75.8788 718.236 77.8485 718.236 80.1364C718.236 82.6061 717.622 84.8106 716.395 86.75C715.183 88.6742 713.387 90.197 711.009 91.3182C708.63 92.4394 705.698 93 702.213 93H682.327ZM692.168 84.9545H700.19C702.933 84.9545 704.933 84.4318 706.19 83.3864C707.448 82.3258 708.077 80.9167 708.077 79.1591C708.077 77.8712 707.766 76.7348 707.145 75.75C706.524 74.7652 705.637 73.9924 704.486 73.4318C703.349 72.8712 701.993 72.5909 700.418 72.5909H692.168V84.9545ZM692.168 65.9318H699.463C700.812 65.9318 702.009 65.697 703.054 65.2273C704.115 64.7424 704.948 64.0606 705.554 63.1818C706.175 62.303 706.486 61.25 706.486 60.0227C706.486 58.3409 705.887 56.9848 704.69 55.9545C703.509 54.9242 701.827 54.4091 699.645 54.4091H692.168V65.9318ZM753.389 46.4545H763.23V76.6818C763.23 80.0758 762.42 83.0455 760.798 85.5909C759.192 88.1364 756.942 90.1212 754.048 91.5455C751.154 92.9545 747.783 93.6591 743.935 93.6591C740.071 93.6591 736.692 92.9545 733.798 91.5455C730.904 90.1212 728.654 88.1364 727.048 85.5909C725.442 83.0455 724.639 80.0758 724.639 76.6818V46.4545H734.48V75.8409C734.48 77.6136 734.866 79.1894 735.639 80.5682C736.427 81.947 737.533 83.0303 738.957 83.8182C740.382 84.6061 742.041 85 743.935 85C745.844 85 747.503 84.6061 748.912 83.8182C750.336 83.0303 751.435 81.947 752.207 80.5682C752.995 79.1894 753.389 77.6136 753.389 75.8409V46.4545ZM769.554 54.5682V46.4545H807.781V54.5682H793.531V93H783.804V54.5682H769.554ZM812.304 54.5682V46.4545H850.531V54.5682H836.281V93H826.554V54.5682H812.304ZM897.537 69.7273C897.537 74.803 896.575 79.1212 894.651 82.6818C892.741 86.2424 890.135 88.9621 886.832 90.8409C883.545 92.7045 879.848 93.6364 875.741 93.6364C871.605 93.6364 867.893 92.697 864.605 90.8182C861.317 88.9394 858.719 86.2197 856.81 82.6591C854.901 79.0985 853.946 74.7879 853.946 69.7273C853.946 64.6515 854.901 60.3333 856.81 56.7727C858.719 53.2121 861.317 50.5 864.605 48.6364C867.893 46.7576 871.605 45.8182 875.741 45.8182C879.848 45.8182 883.545 46.7576 886.832 48.6364C890.135 50.5 892.741 53.2121 894.651 56.7727C896.575 60.3333 897.537 64.6515 897.537 69.7273ZM887.56 69.7273C887.56 66.4394 887.067 63.6667 886.082 61.4091C885.113 59.1515 883.741 57.4394 881.969 56.2727C880.196 55.1061 878.12 54.5227 875.741 54.5227C873.363 54.5227 871.287 55.1061 869.514 56.2727C867.741 57.4394 866.363 59.1515 865.378 61.4091C864.408 63.6667 863.923 66.4394 863.923 69.7273C863.923 73.0152 864.408 75.7879 865.378 78.0455C866.363 80.303 867.741 82.0152 869.514 83.1818C871.287 84.3485 873.363 84.9318 875.741 84.9318C878.12 84.9318 880.196 84.3485 881.969 83.1818C883.741 82.0152 885.113 80.303 886.082 78.0455C887.067 75.7879 887.56 73.0152 887.56 69.7273ZM943.759 46.4545V93H935.259L915.009 63.7045H914.668V93H904.827V46.4545H913.463L933.554 75.7273H933.963V46.4545H943.759Z" fill="black"/>
<defs>
<filter id="filter0_d_3_70" x="616" y="580" width="189" height="58" filterUnits="userSpaceOnUse" color-interpolation-filters="sRGB">
<feFlood flood-opacity="0" result="BackgroundImageFix"/>
<feColorMatrix in="SourceAlpha" type="matrix" values="0 0 0 0 0 0 0 0 0 0 0 0 0 0 0 0 0 0 127 0" result="hardAlpha"/>
<feOffset dy="1"/>
<feGaussianBlur stdDeviation="5"/>
<feColorMatrix type="matrix" values="0 0 0 0 0 0 0 0 0 0 0 0 0 0 0 0 0 0 0.15 0"/>
<feBlend mode="normal" in2="BackgroundImageFix" result="effect1_dropShadow_3_70"/>
<feBlend mode="normal" in="SourceGraphic" in2="effect1_dropShadow_3_70" result="shape"/>
</filter>
<clipPath id="clip0_3_70">
<rect width="14" height="16" fill="white" transform="translate(767 741.286)"/>
</clipPath>
<clipPath id="clip1_3_70">
<rect width="14" height="14" fill="white" transform="translate(709 193)"/>
</clipPath>
<clipPath id="clip2_3_70">
<rect width="14" height="14" fill="white" transform="translate(709 220)"/>
</clipPath>
<clipPath id="clip3_3_70">
<rect width="14" height="14" fill="white" transform="translate(709 247)"/>
</clipPath>
<clipPath id="clip4_3_70">
<rect width="14" height="14" fill="white" transform="translate(709 301)"/>
</clipPath>
<clipPath id="clip5_3_70">
<rect width="14" height="14" fill="white" transform="translate(709 328)"/>
</clipPath>
<clipPath id="clip6_3_70">
<rect width="30" height="30" fill="white" transform="translate(818 353)"/>
</clipPath>
<clipPath id="clip7_3_70">
<rect width="24" height="24" fill="white" transform="translate(821 187)"/>
</clipPath>
<clipPath id="clip8_3_70">
<rect width="24" height="24" fill="white" transform="translate(821 236)"/>
</clipPath>
<clipPath id="clip9_3_70">
<rect width="68" height="68" fill="white" transform="translate(234 387)"/>
</clipPath>
<clipPath id="clip10_3_70">
<rect width="74" height="74" fill="white" transform="translate(110 585)"/>
</clipPath>
<clipPath id="clip11_3_70">
<rect width="74" height="74" fill="white" transform="translate(231 581)"/>
</clipPath>
<clipPath id="clip12_3_70">
<rect width="24" height="24" fill="white" transform="translate(821 408)"/>
</clipPath>
<clipPath id="clip13_3_70">
<rect width="18" height="18" fill="white" transform="translate(892 200)"/>
</clipPath>
<clipPath id="clip14_3_70">
<rect width="18" height="18" fill="white" transform="translate(892 253)"/>
</clipPath>
<clipPath id="clip15_3_70">
<rect width="18" height="18" fill="white" transform="translate(892 289)"/>
</clipPath>
<clipPath id="clip16_3_70">
<rect width="18" height="18" fill="white" transform="translate(750 469)"/>
</clipPath>
<clipPath id="clip17_3_70">
<rect width="18" height="18" fill="white" transform="translate(594 193)"/>
</clipPath>
<clipPath id="clip18_3_70">
<rect width="18" height="18" fill="white" transform="translate(594 274)"/>
</clipPath>
<clipPath id="clip19_3_70">
<rect width="18" height="18" fill="white" transform="translate(594 301)"/>
</clipPath>
<clipPath id="clip20_3_70">
<rect width="18" height="18" fill="white" transform="translate(594 328)"/>
</clipPath>
<clipPath id="clip21_3_70">
<rect width="16.5" height="18" fill="white" transform="translate(595 220)"/>
</clipPath>
<clipPath id="clip22_3_70">
<rect width="18" height="18" fill="white" transform="translate(594 246)"/>
</clipPath>
<clipPath id="clip23_3_70">
<rect width="14" height="16" fill="white" transform="translate(770 679.286)"/>
</clipPath>
<clipPath id="clip24_3_70">
<rect width="138" height="32" fill="white" transform="translate(1003 554)"/>
</clipPath>
<clipPath id="clip25_3_70">
<rect width="16" height="16" fill="white" transform="translate(1077 662)"/>
</clipPath>
</defs>
</svg>
